<svg id="Layer_1" data-name="Layer 1" xmlns="http://www.w3.org/2000/svg" viewBox="0 0 991 1804"><defs><style>.cls-1{fill:purple;}</style></defs><path class="cls-1" d="M977.55,1258.66l-72.92-72.92a46,46,0,0,0-65,0L494.5,1530.91,151,1187.4a48.61,48.61,0,0,0-68.77,0l-68.09,68.09a48.61,48.61,0,0,0,0,68.77l343.51,343.51-.36.35L495.2,1806l482.35-482.38A46,46,0,0,0,977.55,1258.66Z"/><path class="cls-1" d="M977.55,631.66l-72.92-72.92a46,46,0,0,0-65,0L494.5,903.91,151,560.4a48.61,48.61,0,0,0-68.77,0L14.13,628.49a48.61,48.61,0,0,0,0,68.77l343.51,343.51-.36.35L495.2,1179,977.55,696.63A46,46,0,0,0,977.55,631.66Z"/><path class="cls-1" d="M977.55,88.66,904.63,15.74a46,46,0,0,0-65,0L494.5,360.91,151,17.4a48.61,48.61,0,0,0-68.77,0L14.13,85.49a48.61,48.61,0,0,0,0,68.77L357.64,497.77l-.36.35L495.2,636,977.55,153.63A46,46,0,0,0,977.55,88.66Z"/></svg>