<svg id="Layer_1" data-name="Layer 1" xmlns="http://www.w3.org/2000/svg" viewBox="0 0 991 1804"><defs><style>.cls-1{fill:#00ff12;}</style></defs><path class="cls-1" d="M977.55,547.64l-72.92,72.91a45.94,45.94,0,0,1-65,0L494.5,275.39,151,618.9a48.63,48.63,0,0,1-68.77,0L14.13,550.8a48.6,48.6,0,0,1,0-68.76L357.64,138.52l-.36-.35L495.2.29,977.55,482.67A46,46,0,0,1,977.55,547.64Z"/><path class="cls-1" d="M977.55,1174.64l-72.92,72.91a45.94,45.94,0,0,1-65,0L494.5,902.39,151,1245.9a48.63,48.63,0,0,1-68.77,0l-68.09-68.1a48.6,48.6,0,0,1,0-68.76L357.64,765.52l-.36-.35L495.2,627.29l482.35,482.38A46,46,0,0,1,977.55,1174.64Z"/><path class="cls-1" d="M977.55,1717.64l-72.92,72.91a45.94,45.94,0,0,1-65,0L494.5,1445.39,151,1788.9a48.63,48.63,0,0,1-68.77,0l-68.09-68.1a48.6,48.6,0,0,1,0-68.76l343.51-343.52-.36-.35L495.2,1170.29l482.35,482.38A46,46,0,0,1,977.55,1717.64Z"/></svg>