<svg id="Camada_1" data-name="Camada 1" xmlns="http://www.w3.org/2000/svg" xmlns:xlink="http://www.w3.org/1999/xlink" viewBox="0 0 1300 936"><defs><style>.cls-1{fill:url(#linear-gradient);}.cls-2{fill:url(#linear-gradient-2);}.cls-3{fill:url(#linear-gradient-3);}.cls-4{fill:url(#linear-gradient-4);}.cls-5{fill:url(#linear-gradient-5);}.cls-6{fill:url(#linear-gradient-6);}.cls-7{fill:url(#linear-gradient-7);}.cls-8{fill:url(#linear-gradient-8);}.cls-9{fill:url(#linear-gradient-9);}.cls-10{fill:url(#linear-gradient-10);}.cls-11{font-size:132.82px;fill:#00386c;font-family:PirulenRg-Regular, Pirulen;}.cls-12{fill:#fbb040;}</style><linearGradient id="linear-gradient" x1="621.07" y1="569.74" x2="621.07" y2="54.37" gradientUnits="userSpaceOnUse"><stop offset="0" stop-color="#00abc5"/><stop offset="0.44" stop-color="#00929e"/><stop offset="1" stop-color="#007b8d"/></linearGradient><linearGradient id="linear-gradient-2" x1="450.6" y1="250.25" x2="791.57" y2="250.25" gradientUnits="userSpaceOnUse"><stop offset="0" stop-color="#007b8d"/><stop offset="0.56" stop-color="#00929e"/><stop offset="1" stop-color="#00abc5"/></linearGradient><linearGradient id="linear-gradient-3" x1="617.97" y1="259.7" x2="709.56" y2="206.82" gradientUnits="userSpaceOnUse"><stop offset="0" stop-color="#007b8d"/><stop offset="0.21" stop-color="#008393"/><stop offset="0.42" stop-color="#00929e"/><stop offset="1" stop-color="#00aab5"/></linearGradient><linearGradient id="linear-gradient-4" x1="479.03" y1="284.91" x2="626.38" y2="199.84" gradientUnits="userSpaceOnUse"><stop offset="0" stop-color="#007b8d"/><stop offset="0.39" stop-color="#00929e"/><stop offset="1" stop-color="#6ac9c8"/></linearGradient><linearGradient id="linear-gradient-5" x1="730.36" y1="579.08" x2="730.36" y2="396.05" gradientUnits="userSpaceOnUse"><stop offset="0" stop-color="#b1ded3"/><stop offset="0.44" stop-color="#00b3b5"/><stop offset="1" stop-color="#007b8d"/></linearGradient><linearGradient id="linear-gradient-6" x1="757.63" y1="447.96" x2="757.63" y2="375.24" xlink:href="#linear-gradient"/><linearGradient id="linear-gradient-7" x1="464.49" y1="366.66" x2="615.39" y2="366.66" gradientUnits="userSpaceOnUse"><stop offset="0" stop-color="#ffcb05"/><stop offset="0.61" stop-color="#f37021"/><stop offset="1" stop-color="#f04e23"/></linearGradient><linearGradient id="linear-gradient-8" x1="464.67" y1="546.94" x2="695.43" y2="546.94" gradientUnits="userSpaceOnUse"><stop offset="0" stop-color="#f04e23"/><stop offset="0.39" stop-color="#f37021"/><stop offset="1" stop-color="#fbb040"/></linearGradient><linearGradient id="linear-gradient-9" x1="464.67" y1="540.34" x2="637.08" y2="540.34" gradientUnits="userSpaceOnUse"><stop offset="0" stop-color="#f04e23"/><stop offset="0.39" stop-color="#f37021"/><stop offset="1" stop-color="#ffd400"/></linearGradient><linearGradient id="linear-gradient-10" x1="530.45" y1="588.2" x2="530.45" y2="394.15" xlink:href="#linear-gradient-8"/></defs><path class="cls-1" d="M721.49,569.74c3.78-39.25-12.43-82.24-45.43-119.53q-1.14-1.31-2.31-2.58C660.39,433,644.26,418.76,623,402.8c-11.75-8.82-24-17.39-35.85-25.68-8.29-5.81-16.87-11.81-25.17-17.82-35.32-25.59-74.12-57.71-94.15-101.95a158.23,158.23,0,0,1,66.26-203,63.21,63.21,0,0,0-.34,16.22l-.87-.39L534.73,77a80.61,80.61,0,0,0,3.86,13.1c6.69,17.25,19.94,35.36,39.39,53.83,21,19.94,50.29,42.26,76.13,61.94,7.23,5.51,14,10.71,20.32,15.58,33.12,25.69,58,45.65,76.75,68.62,20.46,25.06,31.77,52.26,35.6,85.58,0,.21.13,1,.15,1.2a236.82,236.82,0,0,1-3,70.53C775,493.51,753,536.6,721.49,569.74Z"/><path class="cls-2" d="M723.7,396.05c-114.79-110.88-168.19-262.59-182-307.18a76.93,76.93,0,0,1-3.73-12.66c0-.09,0-.15,0-.15h0a60,60,0,0,1,.88-27.95S418.06,178.74,621.09,405.46l-.07,0c18,13.48,35.15,27.84,50.3,44.41.77.84,1.52,1.7,2.28,2.55C681.9,426.43,700.42,408.43,723.7,396.05Z"/><path class="cls-3" d="M676.45,218.81c-28.59-22.18-69.44-51.9-96.2-77.31-15.75-15-31-33-38.59-52.63,13.85,44.59,67.25,196.3,182,307.18,19.8-10.53,43-17,66.35-20.81C781.64,302.14,739.47,267.7,676.45,218.81Z"/><path class="cls-4" d="M538.78,48.11A161.51,161.51,0,0,0,464.84,258.7c19.53,43.15,56.85,75.47,95.21,103.26,20.17,14.61,41.05,28.51,61,43.47l.07,0C418.06,178.74,538.78,48.11,538.78,48.11Z"/><path class="cls-5" d="M716.85,579.08c36.28-35,60.76-81.67,70.27-131.12a485.6,485.6,0,0,1-63.42-51.91c-23.28,12.38-41.8,30.38-50.1,56.34C704.32,487.11,725.36,533.65,716.85,579.08Z"/><path class="cls-6" d="M787.12,448a240.61,240.61,0,0,0,3.08-71.51c-.05-.41-.11-.8-.15-1.21-23.31,3.82-46.55,10.28-66.35,20.81A485.6,485.6,0,0,0,787.12,448Z"/><path class="cls-7" d="M615.39,424.13C569,389.93,524.92,369,476.16,309.18a250.71,250.71,0,0,0-11.49,85C498.4,385.57,555.62,381.53,615.39,424.13Z"/><path class="cls-8" d="M634.92,686.53a52.49,52.49,0,0,1-5.4,18.74c25.12-30.66,47.84-64.27,59-102.3s9.63-81.22-11.4-114.83a193.37,193.37,0,0,0-18.29-24.36q-5.42-6.13-10.87-11.66l-1.38-1.39-.13-.12a273.66,273.66,0,0,0-28.37-24.47l-2.72-2c-59.77-42.6-117-38.56-150.72-30h0C639.35,537.26,642.51,645,634.92,686.53Z"/><path class="cls-9" d="M464.67,394.15h0s76.91,66.73,131.55,194h0c14.48,14,25.7,31.11,31.28,50,4.65,15.77,9,32.54,7.41,48.32C642.51,645,639.35,537.26,464.67,394.15Z"/><path class="cls-10" d="M464.67,394.15c1.94,49.87,19.3,98.44,54.62,133.13,16.54,16.25,52.43,39.91,70.17,54.82q3.49,2.94,6.77,6.1h0C541.58,460.88,464.67,394.15,464.67,394.15Z"/><text class="cls-11" transform="translate(322.67 809.82)">SMART</text><path class="cls-12" d="M62.78,891.2a24.05,24.05,0,0,1-5.62-1.93,23.46,23.46,0,0,1-4.88-3.2l4.07-5a18.48,18.48,0,0,0,5.86,3.46,20.56,20.56,0,0,0,6.95,1.15c3.37,0,6-.63,7.84-1.88a6,6,0,0,0,2.79-5.3v0a5.58,5.58,0,0,0-1.27-3.86,7.54,7.54,0,0,0-3.26-2.11,37.19,37.19,0,0,0-5.17-1.27l-.21,0a.66.66,0,0,1-.21,0l-.48-.1a48.76,48.76,0,0,1-7.61-1.81,10.73,10.73,0,0,1-5-3.68q-2.09-2.67-2.08-7.61v0a13.44,13.44,0,0,1,1.94-7.38,12.15,12.15,0,0,1,5.65-4.66,24.57,24.57,0,0,1,13.85-1.06,25.33,25.33,0,0,1,4.77,1.62,27.9,27.9,0,0,1,4.63,2.71l-3.71,5.19a21.85,21.85,0,0,0-5.31-2.94,15.17,15.17,0,0,0-5.3-1q-4.77,0-7.41,1.9a6.27,6.27,0,0,0-2.64,5.4v0a5.14,5.14,0,0,0,1.36,3.78,8.29,8.29,0,0,0,3.39,2A53.18,53.18,0,0,0,71.37,865l.24,0,.24,0,.35.07.35.06a38.88,38.88,0,0,1,7.06,2,11,11,0,0,1,4.74,3.83,12.13,12.13,0,0,1,1.91,7.22v.06a12.81,12.81,0,0,1-2,7.29,12.54,12.54,0,0,1-5.84,4.61,24,24,0,0,1-9.24,1.59A31.15,31.15,0,0,1,62.78,891.2Z"/><path class="cls-12" d="M94.91,844.79h6.53v6.53H94.91Zm0,13.32h6.53v33.25H94.91Z"/><path class="cls-12" d="M117.6,891.26a19.73,19.73,0,0,1-4.82-1.73,18.91,18.91,0,0,1-4.13-2.88l3.87-4.77a21.94,21.94,0,0,0,5.35,3.07,14.58,14.58,0,0,0,5.25,1,11.26,11.26,0,0,0,5.82-1.2,4,4,0,0,0,1.93-3.61,2.82,2.82,0,0,0-1.05-2.4,6,6,0,0,0-2.63-1.07c-1-.18-2.52-.35-4.42-.5a5.06,5.06,0,0,1-.54,0l-.55,0-.26,0-.25,0a25.83,25.83,0,0,1-5.48-.94,7.45,7.45,0,0,1-3.73-2.58,8.58,8.58,0,0,1-1.49-5.41,11,11,0,0,1,1.44-5.86,8.76,8.76,0,0,1,4.29-3.51,19,19,0,0,1,7.15-1.17,24.57,24.57,0,0,1,4.94.48,22.06,22.06,0,0,1,4.5,1.43,22.69,22.69,0,0,1,4.14,2.38L133,866.7a22.3,22.3,0,0,0-4.92-2.41,15.09,15.09,0,0,0-4.72-.8,8.91,8.91,0,0,0-5,1.14,3.86,3.86,0,0,0-1.66,3.41,2.31,2.31,0,0,0,.94,2,5.48,5.48,0,0,0,2.39.9c1,.14,2.32.27,4.1.38a2.5,2.5,0,0,0,.4,0l.43,0h.19a.65.65,0,0,1,.19,0,28.34,28.34,0,0,1,5.94.92,8,8,0,0,1,4.12,2.79,9.47,9.47,0,0,1,1.66,6,10.7,10.7,0,0,1-1.53,5.94,9.31,9.31,0,0,1-4.63,3.54,21.89,21.89,0,0,1-7.77,1.19A25.54,25.54,0,0,1,117.6,891.26Z"/><path class="cls-12" d="M142.82,858.11h15V864h-15Zm5.3,31.18c-1.25-1.48-1.87-3.68-1.87-6.58V848.44h6.53v34.33a3.17,3.17,0,0,0,.48,1.88,1.65,1.65,0,0,0,1.41.65h3.14v6.22H154Q150,891.52,148.12,889.29Z"/><path class="cls-12" d="M172.51,890.11a11.59,11.59,0,0,1-5-5.08,17.61,17.61,0,0,1-1.72-8.09V873.2a19.62,19.62,0,0,1,1.65-8.43,11.8,11.8,0,0,1,4.79-5.31,14.75,14.75,0,0,1,7.56-1.83,12,12,0,0,1,7.11,2.08,13,13,0,0,1,4.5,6,25.61,25.61,0,0,1,1.55,9.44v2.18H170.55v-5.25h16.21a11.18,11.18,0,0,0-2.1-6.33,5.89,5.89,0,0,0-4.85-2.25,7.08,7.08,0,0,0-5.75,2.43,10.47,10.47,0,0,0-2,6.88v4.23a8.61,8.61,0,0,0,2.18,6.34,8.26,8.26,0,0,0,6.18,2.21,10.24,10.24,0,0,0,3.94-.8,11.39,11.39,0,0,0,3.49-2.24l4.29,4.29a18.26,18.26,0,0,1-5.54,3.67,15.87,15.87,0,0,1-6.18,1.3A16.67,16.67,0,0,1,172.51,890.11Z"/><path class="cls-12" d="M201.94,858.11h6.53v33.25h-6.53Zm19.86,13.1a7.86,7.86,0,0,0-1.73-5.44,6.26,6.26,0,0,0-4.9-1.92,6.8,6.8,0,0,0-4.95,1.69,6.36,6.36,0,0,0-1.75,4.77l-.67-6.4a11.85,11.85,0,0,1,4-4.64,9.8,9.8,0,0,1,5.49-1.64,10.75,10.75,0,0,1,6,1.59,9.91,9.91,0,0,1,3.76,4.63,18.52,18.52,0,0,1,1.3,7.33v20.18H221.8Zm19.85,0a7.56,7.56,0,0,0-1.82-5.44,6.75,6.75,0,0,0-5.13-1.92,6,6,0,0,0-4.7,1.85,7.62,7.62,0,0,0-1.67,5.26L227,864.55a12.74,12.74,0,0,1,4.15-5.11,9.69,9.69,0,0,1,5.68-1.81,11.32,11.32,0,0,1,6.13,1.59,10,10,0,0,1,3.88,4.63,18.32,18.32,0,0,1,1.33,7.33v20.18h-6.54Z"/><path class="cls-12" d="M309.84,844.79H316v46.57h-6.38V856.48l.32,2-11.46,26.36h-4.55l-11.47-25.72.32-2.69v34.88h-6.37V844.79h6.12l13.67,30.75Z"/><path class="cls-12" d="M332.19,890.14a11.18,11.18,0,0,1-4.69-4.95,17.42,17.42,0,0,1-1.61-7.83V872a17.08,17.08,0,0,1,1.61-7.74,11.17,11.17,0,0,1,4.69-4.9,17.14,17.14,0,0,1,14.8,0,11.17,11.17,0,0,1,4.69,4.9A17.08,17.08,0,0,1,353.3,872v5.51a17.08,17.08,0,0,1-1.62,7.76,11.22,11.22,0,0,1-4.69,4.92,17,17,0,0,1-14.8,0Zm12.7-6.66a8.86,8.86,0,0,0,1.88-6V872a8.74,8.74,0,0,0-1.88-6,7.71,7.71,0,0,0-10.6,0,8.74,8.74,0,0,0-1.87,6v5.51a8.86,8.86,0,0,0,1.87,6,7.63,7.63,0,0,0,10.6,0Z"/><path class="cls-12" d="M362.59,858.11h6.53v33.25h-6.53Zm20.18,13.1a7.57,7.57,0,0,0-1.83-5.44,7.93,7.93,0,0,0-10.07-.23,6.32,6.32,0,0,0-1.75,4.77l-.67-6.4a11.69,11.69,0,0,1,4-4.64,9.75,9.75,0,0,1,5.49-1.64,10.33,10.33,0,0,1,8.38,3.54q3,3.54,3,10v20.18h-6.53Z"/><path class="cls-12" d="M399.23,844.79h6.53v6.53h-6.53Zm0,13.32h6.53v33.25h-6.53Z"/><path class="cls-12" d="M413.13,858.11h15V864h-15Zm5.3,31.18c-1.25-1.48-1.88-3.68-1.88-6.58V848.44h6.54v34.33a3.17,3.17,0,0,0,.48,1.88,1.65,1.65,0,0,0,1.41.65h3.14v6.22h-3.78Q420.3,891.52,418.43,889.29Z"/><path class="cls-12" d="M442.43,890.14a11.18,11.18,0,0,1-4.69-4.95,17.41,17.41,0,0,1-1.62-7.83V872a17.08,17.08,0,0,1,1.62-7.74,11.17,11.17,0,0,1,4.69-4.9,17.14,17.14,0,0,1,14.8,0,11.17,11.17,0,0,1,4.69,4.9,17.08,17.08,0,0,1,1.62,7.74v5.51a17.08,17.08,0,0,1-1.62,7.76,11.22,11.22,0,0,1-4.69,4.92,17,17,0,0,1-14.8,0Zm12.7-6.66a8.86,8.86,0,0,0,1.87-6V872a8.74,8.74,0,0,0-1.87-6,7.71,7.71,0,0,0-10.6,0,8.74,8.74,0,0,0-1.88,6v5.51a8.86,8.86,0,0,0,1.88,6,7.63,7.63,0,0,0,10.6,0Z"/><path class="cls-12" d="M472.82,858.11h6.54v33.25h-6.54Zm16.11,6.28a7.93,7.93,0,0,0-3-.54,6.52,6.52,0,0,0-4.82,1.71,6.43,6.43,0,0,0-1.71,4.75l-.67-6.4a12.08,12.08,0,0,1,4-4.63,9.36,9.36,0,0,1,5.38-1.65,12.14,12.14,0,0,1,4.11.66,9.16,9.16,0,0,1,3.22,1.94L491.11,866A5.41,5.41,0,0,0,488.93,864.39Z"/><path class="cls-12" d="M500.82,844.79h6.53v6.53h-6.53Zm0,13.32h6.53v33.25h-6.53Z"/><path class="cls-12" d="M517.28,858.11h6.53v33.25h-6.53Zm20.18,13.1a7.57,7.57,0,0,0-1.83-5.44,7.93,7.93,0,0,0-10.07-.23,6.32,6.32,0,0,0-1.75,4.77l-.67-6.4a11.69,11.69,0,0,1,4-4.64,9.75,9.75,0,0,1,5.49-1.64,10.33,10.33,0,0,1,8.38,3.54q3,3.54,3,10v20.18h-6.53Z"/><path class="cls-12" d="M558.22,890.35a10.08,10.08,0,0,1-3.92-4.63,17.92,17.92,0,0,1-1.34-7.3v-7.34a18.37,18.37,0,0,1,1.31-7.33,9.91,9.91,0,0,1,3.83-4.63,11,11,0,0,1,6-1.58,10,10,0,0,1,5.4,1.53,11.46,11.46,0,0,1,4,4.33l-.68,6.79a7.77,7.77,0,0,0-.77-3.62,5.18,5.18,0,0,0-2.22-2.29,7.29,7.29,0,0,0-3.54-.79,6.33,6.33,0,0,0-5,2,8.29,8.29,0,0,0-1.78,5.67v7.24a8.05,8.05,0,0,0,1.78,5.59,6.4,6.4,0,0,0,5,2,7.18,7.18,0,0,0,3.54-.82,5.37,5.37,0,0,0,2.22-2.35,8.1,8.1,0,0,0,.77-3.69l.45,7a9.43,9.43,0,0,1-3.25,4.13,9.12,9.12,0,0,1-5.56,1.66A11.74,11.74,0,0,1,558.22,890.35Zm.13,13.13a10.85,10.85,0,0,1-4.59-3.92l4.42-4a9.05,9.05,0,0,0,3.05,2.72,7.67,7.67,0,0,0,3.74,1,7.78,7.78,0,0,0,5.79-2.07,7.94,7.94,0,0,0,2-5.85V858.11h6.54v32.25a16.85,16.85,0,0,1-1.69,7.85,11.3,11.3,0,0,1-4.88,5,16.18,16.18,0,0,1-7.72,1.7A15.58,15.58,0,0,1,558.35,903.48Z"/><path class="cls-12" d="M620.21,844.79h5.58L643,891.36h-7L623,853.79l-12.91,37.57h-7ZM611,874.93h24.5v6.21H611Z"/><path class="cls-12" d="M649.36,858.11h6.53v33.25h-6.53Zm20.18,13.1a7.57,7.57,0,0,0-1.83-5.44,7.93,7.93,0,0,0-10.07-.23,6.32,6.32,0,0,0-1.75,4.77l-.67-6.4a11.69,11.69,0,0,1,4-4.64,9.75,9.75,0,0,1,5.49-1.64,10.33,10.33,0,0,1,8.38,3.54q3,3.54,3,10v20.18h-6.53Z"/><path class="cls-12" d="M690.3,890.35a10,10,0,0,1-3.92-4.63,17.92,17.92,0,0,1-1.35-7.3v-7.34a18.36,18.36,0,0,1,1.32-7.33,10,10,0,0,1,3.82-4.63,11.07,11.07,0,0,1,6-1.58,10,10,0,0,1,5.4,1.53,11.36,11.36,0,0,1,3.95,4.33l-.67,6.79a7.9,7.9,0,0,0-.77-3.62,5.18,5.18,0,0,0-2.22-2.29,7.32,7.32,0,0,0-3.54-.79,6.33,6.33,0,0,0-5,2,8.29,8.29,0,0,0-1.78,5.67v7.24a8.05,8.05,0,0,0,1.78,5.59,6.4,6.4,0,0,0,5,2,7.21,7.21,0,0,0,3.54-.82,5.37,5.37,0,0,0,2.22-2.35,8.24,8.24,0,0,0,.77-3.69l.45,7a9.5,9.5,0,0,1-3.25,4.13,9.12,9.12,0,0,1-5.56,1.66A11.74,11.74,0,0,1,690.3,890.35Zm14.59-45.56h6.53v46.57h-6.53Z"/><path class="cls-12" d="M739.61,844.76h6.53v46.6h-6.53Zm2.85,20.69h15.88a6.1,6.1,0,0,0,3.3-.9,5.91,5.91,0,0,0,2.23-2.55,9.62,9.62,0,0,0,0-7.59,5.85,5.85,0,0,0-2.21-2.54,6.09,6.09,0,0,0-3.32-.9H742.46v-6.21h15.63a14.59,14.59,0,0,1,7.09,1.66,11.67,11.67,0,0,1,4.74,4.73,15.63,15.63,0,0,1,0,14.12,11.82,11.82,0,0,1-4.76,4.72,14.53,14.53,0,0,1-7.06,1.67H742.46Zm12.68,4.77,6.5-1.47,11.92,22.61h-7.75Z"/><path class="cls-12" d="M786.18,890.11a11.59,11.59,0,0,1-5-5.08,17.48,17.48,0,0,1-1.72-8.09V873.2a19.62,19.62,0,0,1,1.65-8.43,11.8,11.8,0,0,1,4.79-5.31,14.75,14.75,0,0,1,7.56-1.83,12.08,12.08,0,0,1,7.11,2.08,13,13,0,0,1,4.5,6,25.82,25.82,0,0,1,1.55,9.44v2.18H784.22v-5.25h16.21a11.18,11.18,0,0,0-2.1-6.33,5.9,5.9,0,0,0-4.85-2.25,7.07,7.07,0,0,0-5.75,2.43c-1.36,1.62-2,3.92-2,6.88v4.23a8.65,8.65,0,0,0,2.17,6.34,8.29,8.29,0,0,0,6.18,2.21,10.17,10.17,0,0,0,3.94-.8,11.31,11.31,0,0,0,3.5-2.24l4.29,4.29a18.26,18.26,0,0,1-5.54,3.67,15.88,15.88,0,0,1-6.19,1.3A16.63,16.63,0,0,1,786.18,890.11Z"/><path class="cls-12" d="M815.61,858.11h6.53v46.76h-6.53Zm9.48,32.24a8.78,8.78,0,0,1-3.4-4.21l.45-6.95a8,8,0,0,0,.77,3.65,5.33,5.33,0,0,0,2.23,2.3,7.18,7.18,0,0,0,3.54.8,6.39,6.39,0,0,0,5-2,8,8,0,0,0,1.78-5.55v-7.21a8.34,8.34,0,0,0-1.78-5.67,6.35,6.35,0,0,0-5-2,7.53,7.53,0,0,0-3.54.76,5.23,5.23,0,0,0-2.23,2.26,7.74,7.74,0,0,0-.77,3.57l-.67-6.4a11.44,11.44,0,0,1,3.94-4.5,9.69,9.69,0,0,1,5.41-1.59,11.08,11.08,0,0,1,6,1.59,10,10,0,0,1,3.83,4.63,18.51,18.51,0,0,1,1.31,7.33v7.24a17.62,17.62,0,0,1-1.35,7.24,10,10,0,0,1-3.94,4.59,11.63,11.63,0,0,1-6.21,1.59A9.78,9.78,0,0,1,825.09,890.35Z"/><path class="cls-12" d="M856.64,890.14a11.21,11.21,0,0,1-4.7-4.95,17.55,17.55,0,0,1-1.61-7.83V872a17.21,17.21,0,0,1,1.61-7.74,11.19,11.19,0,0,1,4.7-4.9,17.12,17.12,0,0,1,14.79,0,11.12,11.12,0,0,1,4.69,4.9,17.08,17.08,0,0,1,1.62,7.74v5.51a17.08,17.08,0,0,1-1.62,7.76,11.16,11.16,0,0,1-4.69,4.92,16.93,16.93,0,0,1-14.79,0Zm12.69-6.66a8.86,8.86,0,0,0,1.88-6V872a8.74,8.74,0,0,0-1.88-6,7.71,7.71,0,0,0-10.6,0,8.74,8.74,0,0,0-1.87,6v5.51a8.86,8.86,0,0,0,1.87,6,7.63,7.63,0,0,0,10.6,0Z"/><path class="cls-12" d="M887,858.11h6.53v33.25H887Zm16.11,6.28a8,8,0,0,0-3-.54,6.51,6.51,0,0,0-4.82,1.71,6.4,6.4,0,0,0-1.72,4.75l-.67-6.4a12.16,12.16,0,0,1,4-4.63,9.38,9.38,0,0,1,5.38-1.65,12.15,12.15,0,0,1,4.12.66,9.25,9.25,0,0,1,3.22,1.94L905.32,866A5.55,5.55,0,0,0,903.14,864.39Z"/><path class="cls-12" d="M912.46,858.11h15V864h-15Zm5.3,31.18c-1.25-1.48-1.87-3.68-1.87-6.58V848.44h6.53v34.33a3.17,3.17,0,0,0,.48,1.88,1.65,1.65,0,0,0,1.41.65h3.14v6.22h-3.78Q919.64,891.52,917.76,889.29Z"/><path class="cls-12" d="M936.41,844.79H943v6.53h-6.54Zm0,13.32H943v33.25h-6.54Z"/><path class="cls-12" d="M952.88,858.11h6.53v33.25h-6.53Zm20.17,13.1a7.61,7.61,0,0,0-1.82-5.44,7.93,7.93,0,0,0-10.07-.23,6.32,6.32,0,0,0-1.75,4.77l-.67-6.4a11.69,11.69,0,0,1,4-4.64,9.75,9.75,0,0,1,5.49-1.64q5.41,0,8.37,3.54t3,10v20.18h-6.54Z"/><path class="cls-12" d="M993.82,890.35a10,10,0,0,1-3.92-4.63,17.92,17.92,0,0,1-1.35-7.3v-7.34a18.36,18.36,0,0,1,1.32-7.33,10,10,0,0,1,3.82-4.63,11.07,11.07,0,0,1,6-1.58,10,10,0,0,1,5.4,1.53,11.36,11.36,0,0,1,4,4.33l-.67,6.79a7.9,7.9,0,0,0-.77-3.62,5.18,5.18,0,0,0-2.22-2.29,7.35,7.35,0,0,0-3.54-.79,6.33,6.33,0,0,0-5,2,8.29,8.29,0,0,0-1.78,5.67v7.24a8.05,8.05,0,0,0,1.78,5.59,6.4,6.4,0,0,0,5,2,7.24,7.24,0,0,0,3.54-.82,5.37,5.37,0,0,0,2.22-2.35,8.24,8.24,0,0,0,.77-3.69l.45,7a9.5,9.5,0,0,1-3.25,4.13,9.12,9.12,0,0,1-5.56,1.66A11.74,11.74,0,0,1,993.82,890.35Zm.13,13.13a10.87,10.87,0,0,1-4.6-3.92l4.42-4a9.18,9.18,0,0,0,3.06,2.72,7.66,7.66,0,0,0,3.73,1,7.8,7.8,0,0,0,5.8-2.07,7.94,7.94,0,0,0,2-5.85V858.11h6.53v32.25a17,17,0,0,1-1.68,7.85,11.35,11.35,0,0,1-4.88,5,16.21,16.21,0,0,1-7.72,1.7A15.58,15.58,0,0,1,994,903.48Z"/><path class="cls-12" d="M1036.72,844.79h32.86V851h-32.86Zm13.17,3.81h6.53v42.76h-6.53Z"/><path class="cls-12" d="M1076.28,890.11a11.59,11.59,0,0,1-5-5.08,17.48,17.48,0,0,1-1.72-8.09V873.2a19.62,19.62,0,0,1,1.65-8.43,11.8,11.8,0,0,1,4.79-5.31,14.75,14.75,0,0,1,7.56-1.83,12.08,12.08,0,0,1,7.11,2.08,13,13,0,0,1,4.5,6,25.82,25.82,0,0,1,1.55,9.44v2.18h-22.42v-5.25h16.21a11.18,11.18,0,0,0-2.1-6.33,5.9,5.9,0,0,0-4.85-2.25,7.07,7.07,0,0,0-5.75,2.43c-1.36,1.62-2,3.92-2,6.88v4.23a8.65,8.65,0,0,0,2.17,6.34,8.27,8.27,0,0,0,6.18,2.21,10.17,10.17,0,0,0,3.94-.8,11.15,11.15,0,0,0,3.49-2.24l4.3,4.29a18.26,18.26,0,0,1-5.54,3.67,15.88,15.88,0,0,1-6.19,1.3A16.63,16.63,0,0,1,1076.28,890.11Z"/><path class="cls-12" d="M1105.71,858.11h6.53v33.25h-6.53Zm16.11,6.28a8,8,0,0,0-3-.54,6.52,6.52,0,0,0-4.82,1.71,6.4,6.4,0,0,0-1.72,4.75l-.67-6.4a12.16,12.16,0,0,1,4-4.63,9.38,9.38,0,0,1,5.38-1.65,12.15,12.15,0,0,1,4.12.66,9.25,9.25,0,0,1,3.22,1.94L1124,866A5.55,5.55,0,0,0,1121.82,864.39Z"/><path class="cls-12" d="M1133.7,858.11h6.53v46.76h-6.53Zm9.48,32.24a8.71,8.71,0,0,1-3.39-4.21l.44-6.95a8,8,0,0,0,.77,3.65,5.33,5.33,0,0,0,2.23,2.3,7.18,7.18,0,0,0,3.54.8,6.39,6.39,0,0,0,5-2,8,8,0,0,0,1.78-5.55v-7.21a8.34,8.34,0,0,0-1.78-5.67,6.35,6.35,0,0,0-5-2,7.53,7.53,0,0,0-3.54.76,5.23,5.23,0,0,0-2.23,2.26,7.74,7.74,0,0,0-.77,3.57l-.67-6.4a11.44,11.44,0,0,1,3.94-4.5,9.69,9.69,0,0,1,5.41-1.59,11.08,11.08,0,0,1,6,1.59,9.92,9.92,0,0,1,3.83,4.63,18.51,18.51,0,0,1,1.31,7.33v7.24a17.79,17.79,0,0,1-1.34,7.24,10,10,0,0,1-3.94,4.59,11.67,11.67,0,0,1-6.22,1.59A9.78,9.78,0,0,1,1143.18,890.35Z"/><path class="cls-12" d="M1170.82,889.29q-3-2.55-3-7.73,0-4.93,2.78-7.4t8.43-2.47h9.44l.45,5.25H1179a5.57,5.57,0,0,0-3.83,1.14,4.46,4.46,0,0,0-1.26,3.48,4.31,4.31,0,0,0,1.68,3.74,8.65,8.65,0,0,0,5.11,1.22,14.79,14.79,0,0,0,5.58-.8,2.64,2.64,0,0,0,1.85-2.5l.67,4.68a7.88,7.88,0,0,1-2.13,2.21,9.29,9.29,0,0,1-2.93,1.29,14.85,14.85,0,0,1-3.75.44Q1173.86,891.84,1170.82,889.29Zm17.33-19a7,7,0,0,0-1.75-5.07,6.53,6.53,0,0,0-5-1.81,12.6,12.6,0,0,0-3.89.61,11.52,11.52,0,0,0-3.38,1.69l-4.77-3.26a12.41,12.41,0,0,1,5-3.54,17.85,17.85,0,0,1,6.87-1.27,15.88,15.88,0,0,1,7.08,1.46,10.09,10.09,0,0,1,4.48,4.23,13.48,13.48,0,0,1,1.54,6.67v21.37h-6.21Z"/><path class="cls-12" d="M1208.6,890.35a10,10,0,0,1-3.93-4.63,18.09,18.09,0,0,1-1.34-7.3v-7.34a18.37,18.37,0,0,1,1.31-7.33,10,10,0,0,1,3.83-4.63,11,11,0,0,1,6-1.58,10,10,0,0,1,5.4,1.53,11.38,11.38,0,0,1,4,4.33l-.68,6.79a7.9,7.9,0,0,0-.76-3.62,5.25,5.25,0,0,0-2.23-2.29,7.29,7.29,0,0,0-3.54-.79,6.33,6.33,0,0,0-5,2,8.29,8.29,0,0,0-1.78,5.67v7.24a8.05,8.05,0,0,0,1.78,5.59,6.4,6.4,0,0,0,5,2,7.18,7.18,0,0,0,3.54-.82,5.45,5.45,0,0,0,2.23-2.35,8.24,8.24,0,0,0,.76-3.69l.45,7a9.43,9.43,0,0,1-3.25,4.13,9.09,9.09,0,0,1-5.55,1.66A11.7,11.7,0,0,1,1208.6,890.35Zm14.58-45.56h6.54v46.57h-6.54Z"/><path class="cls-12" d="M1246.18,878.32a7.6,7.6,0,0,0,1.78,5.4,6.5,6.5,0,0,0,5,1.9,6.86,6.86,0,0,0,5-1.69,6.41,6.41,0,0,0,1.76-4.84l.45,6.95a9.55,9.55,0,0,1-3.33,4.13,9.4,9.4,0,0,1-5.67,1.67q-5.51,0-8.5-3.54t-3-10V858.11h6.53Zm13.51-20.21h6.51v33.25h-6.51Z"/></svg>